<svg width="64" height="32" viewBox="0 0 64 32" fill="none" xmlns="http://www.w3.org/2000/svg">
<g id="Java Logo">
<path id="Vector" fill-rule="evenodd" clip-rule="evenodd" d="M63.6575 20.0601H63.9998V18.3826H63.4863L63.0678 19.522L62.6113 18.3826H62.1167V20.0601H62.4401V18.7877H62.4591L62.9347 20.0601H63.1819L63.6575 18.7877V20.0601ZM60.893 20.0601H61.2544V18.6675H61.73V18.3826H60.3985V18.6675H60.893V20.0601ZM30.8966 27.0295C30.8966 29.2324 30.1548 30.8846 28.6648 31.9923L27.5869 31.0808C28.0624 30.5301 28.3795 29.8654 28.538 29.0931C28.6458 28.5677 28.7028 27.8398 28.7028 26.9093V14.7744H30.8966V27.0295ZM40.7369 28.4475H39.1138L38.9489 27.3524C37.9471 28.2196 36.9073 28.65 35.8231 28.65C33.7942 28.65 32.7797 27.7195 32.7797 25.8521C32.7797 24.7823 33.1918 23.9531 34.0161 23.3581C34.9101 22.7251 36.2162 22.4086 37.9345 22.4086H38.6636V21.497C38.6636 20.2943 37.9662 19.6929 36.5776 19.6929C35.6709 19.6929 34.6818 19.8892 33.6166 20.2816L33.3123 19.003C34.5677 18.4522 35.8485 18.1737 37.1482 18.1737C39.5449 18.1737 40.7369 19.1929 40.7369 21.2312V28.4411V28.4475ZM38.6636 26.118V23.7252H37.795C35.8358 23.7252 34.853 24.3329 34.853 25.5483C34.853 26.5991 35.3729 27.1308 36.4128 27.1308C37.1292 27.1308 37.8774 26.7953 38.6636 26.118ZM50.8815 18.3636C50.2221 22.092 49.176 25.4533 47.7557 28.4538H45.1815L42.0747 18.3636H44.3256L46.2531 24.5608L46.6779 26.4282C47.6796 23.6746 48.3454 20.9843 48.6878 18.3636H50.8815ZM59.4411 28.4475H57.8179L57.6531 27.3524C56.6513 28.2196 55.6115 28.65 54.5273 28.65C52.4983 28.65 51.4839 27.7195 51.4839 25.8521C51.4839 24.7823 51.896 23.9531 52.7203 23.3581C53.6143 22.7251 54.9204 22.4086 56.6386 22.4086H57.3678V21.497C57.3678 20.2943 56.6703 19.6929 55.2754 19.6929C54.3688 19.6929 53.3797 19.8892 52.3145 20.2816L52.0101 19.003C53.2655 18.4522 54.5463 18.1737 55.8461 18.1737C58.2428 18.1737 59.4347 19.1929 59.4347 21.2312V28.4411L59.4411 28.4475ZM57.3741 26.118V23.7252H56.4991C54.54 23.7252 53.5572 24.3329 53.5572 25.5483C53.5572 26.5991 54.0771 27.1308 55.1169 27.1308C55.8334 27.1308 56.5816 26.7953 57.3678 26.118H57.3741Z" fill="white"/>
<g id="Group">
<path id="Vector_2" d="M3.00539 19.0283C3.00539 18.1421 6.37214 17.6483 7.93822 17.528L8.09039 17.6167C7.48805 17.7243 5.07236 18.1484 5.07236 18.7054C5.07236 19.3068 8.77515 19.7056 10.9309 19.7056C14.583 19.7056 17.0684 19.1549 17.7341 18.9713L18.6662 19.5157C18.0258 19.8259 15.2804 20.6488 10.9309 20.6488C6.09317 20.6488 3.01173 19.7056 3.01173 19.0346L3.00539 19.0283ZM10.3729 31.4669C8.45813 31.4859 6.12487 31.3277 4.15934 30.9985L3.97547 31.1061C5.93466 31.6822 8.66103 32.024 11.6537 31.9987C17.5376 31.948 22.3056 30.4921 22.4007 28.7387L22.3309 28.7007C21.9378 29.1818 19.389 31.3973 10.3729 31.4733V31.4669ZM10.8738 30.3402C15.6862 30.2959 21.0755 29.359 21.0629 27.7765C21.0629 27.4916 20.8726 27.2954 20.7141 27.1751L20.638 27.2194C20.1942 28.4411 16.428 29.3463 10.8738 29.397C7.28516 29.4286 2.32063 28.5677 2.31429 27.5802C2.30795 26.5864 4.66658 26.042 4.66658 26.042L4.50173 25.9471C2.90394 26.1623 -0.0126396 26.9156 4.12146e-05 28.0107C0.012722 29.5932 6.71452 30.3718 10.8738 30.3402ZM21.7222 19.4524C21.6271 21.3071 19.9089 22.4592 18.1906 23.4404L18.3492 23.529C20.1815 23.0162 23.4468 21.516 23.1742 19.2182C23.0411 18.0724 21.9885 17.2495 20.619 17.2495C20.1942 17.2495 19.8138 17.3255 19.5031 17.4204L19.4397 17.585C20.6634 17.3445 21.7857 18.237 21.7222 19.4524ZM7.57682 24.9659C7.01886 25.0799 5.80151 25.3584 5.80151 25.9471C5.80151 26.7637 8.40741 27.3903 10.9246 27.3903C14.3864 27.3903 15.8003 26.5041 15.8701 26.4535L14.4308 25.6242C13.8158 25.7698 12.7886 25.9977 10.9309 25.9977C8.85758 25.9977 7.50707 25.6432 7.50707 25.2571C7.50707 25.1748 7.5578 25.0799 7.6529 25.0039L7.58316 24.9596L7.57682 24.9659ZM16.0793 22.206C15.2804 22.4339 13.4924 22.7947 10.9246 22.7947C8.35669 22.7947 6.35312 22.3642 6.34678 21.8578C6.34678 21.5223 6.75257 21.3767 6.75257 21.3767L6.68282 21.3324C5.47815 21.5477 4.3559 21.8768 4.36224 22.3642C4.37492 23.2568 7.79239 23.9278 10.9246 23.9278C13.5875 23.9278 16.1364 23.4847 17.2903 22.896L16.0793 22.1997V22.206Z" fill="white"/>
<path id="Vector_3" d="M15.3946 2.2915C15.3946 7.21632 8.63577 9.09636 8.63577 12.5969C8.63577 15.053 10.2653 16.5975 11.1719 17.566L11.0958 17.6104C9.95458 16.9014 6.95557 15.11 6.95557 12.1538C6.95557 8.00758 14.7162 6.01993 14.7162 1.31033C14.7162 0.727962 14.6274 0.284855 14.5704 0.0443107L14.6465 0C14.8937 0.310175 15.3883 1.08245 15.3883 2.2915H15.3946ZM17.6138 6.64661L17.5314 6.6023C16.0604 7.09605 11.5333 8.88114 11.5333 12.2044C11.5333 14.0845 13.3721 15.129 13.3721 16.8887C13.3721 17.5154 13.017 18.1104 12.7253 18.4586L12.8712 18.5409C13.6383 18.0408 14.9952 16.9647 14.9952 15.5784C14.9952 14.401 13.3657 12.9894 13.3657 11.4765C13.3657 9.09636 16.5105 7.22265 17.6138 6.64028V6.64661Z" fill="#F29111"/>
</g>
</g>
</svg>
